{
  "accessors": [
    {
      "bufferView": 2,
      "componentType": 5126,
      "count": 8038,
      "max": [
        0.34827736020088196,
        1.2654486894607544,
        0.1479111909866333
      ],
      "min": [
        -0.34981411695480347,
        -0.0005463561974465847,
        -0.14929674565792084
      ],
      "type": "VEC3"
    },
    {
      "bufferView": 2,
      "byteOffset": 96456,
      "componentType": 5126,
      "count": 8038,
      "max": [
        0.99971526861190796,
        0.99943619966506958,
        0.99994748830795288
      ],
      "min": [
        -0.99989336729049683,
        -0.99935847520828247,
        -0.99999517202377319
      ],
      "type": "VEC3"
    },
    {
      "bufferView": 3,
      "componentType": 5126,
      "count": 8038,
      "max": [
        0.99978995323181152,
        0.99997454881668091,
        0.99994033575057983,
        1
      ],
      "min": [
        -0.99996519088745117,
        -0.99999523162841797,
        -0.99970608949661255,
        -1
      ],
      "type": "VEC4"
    },
    {
      "bufferView": 3,
      "byteOffset": 128608,
      "componentType": 5126,
      "count": 8038,
      "max": [
        1,
        1,
        1,
        1
      ],
      "min": [
        1,
        1,
        1,
        1
      ],
      "type": "VEC4"
    },
    {
      "bufferView": 1,
      "componentType": 5126,
      "count": 8038,
      "max": [
        0.99725872278213501,
        0.99220770597457886
      ],
      "min": [
        0.00097465887665748596,
        0.00097465887665748596
      ],
      "type": "VEC2"
    },
    {
      "bufferView": 1,
      "byteOffset": 64304,
      "componentType": 5126,
      "count": 8038,
      "max": [
        0.99725872278213501,
        0.99220770597457886
      ],
      "min": [
        0.00097465887665748596,
        0.00097465887665748596
      ],
      "type": "VEC2"
    },
    {
      "bufferView": 0,
      "componentType": 5125,
      "count": 30105,
      "max": [
        8037
      ],
      "min": [
        0
      ],
      "type": "SCALAR"
    }
  ],
  "asset": {
    "extras": {
      "author": "David Wigforss (https://sketchfab.com/dwigfor)",
      "license": "CC-BY-NC-4.0 (http://creativecommons.org/licenses/by-nc/4.0/)",
      "source": "https://sketchfab.com/3d-models/zombie-1-1abfe04622654d89aee233356235fc67",
      "title": "Zombie 1"
    },
    "generator": "Sketchfab-5.51.0",
    "version": "2.0"
  },
  "bufferViews": [
    {
      "buffer": 0,
      "byteLength": 120420,
      "byteOffset": 0,
      "name": "floatBufferViews",
      "target": 34963
    },
    {
      "buffer": 0,
      "byteLength": 128608,
      "byteOffset": 120420,
      "byteStride": 8,
      "name": "floatBufferViews",
      "target": 34962
    },
    {
      "buffer": 0,
      "byteLength": 192912,
      "byteOffset": 249028,
      "byteStride": 12,
      "name": "floatBufferViews",
      "target": 34962
    },
    {
      "buffer": 0,
      "byteLength": 257216,
      "byteOffset": 441940,
      "byteStride": 16,
      "name": "floatBufferViews",
      "target": 34962
    }
  ],
  "buffers": [
    {
      "byteLength": 699156,
      "uri": "scene.bin"
    }
  ],
  "images": [
    {
      "uri": "textures/MAT_Zombie1_baseColor.jpeg"
    },
    {
      "uri": "textures/MAT_Zombie1_normal.png"
    }
  ],
  "materials": [
    {
      "doubleSided": true,
      "emissiveFactor": [
        0,
        0,
        0
      ],
      "name": "MAT_Zombie1",
      "normalTexture": {
        "index": 1,
        "scale": 1,
        "texCoord": 0
      },
      "pbrMetallicRoughness": {
        "baseColorFactor": [
          1,
          1,
          1,
          1
        ],
        "baseColorTexture": {
          "index": 0,
          "texCoord": 0
        },
        "metallicFactor": 0,
        "roughnessFactor": 0.95770514949999996
      }
    }
  ],
  "meshes": [
    {
      "name": "geo1_MAT_Zombie1_0",
      "primitives": [
        {
          "attributes": {
            "COLOR_0": 3,
            "NORMAL": 1,
            "POSITION": 0,
            "TANGENT": 2,
            "TEXCOORD_0": 4,
            "TEXCOORD_1": 5
          },
          "indices": 6,
          "material": 0,
          "mode": 4
        }
      ]
    }
  ],
  "nodes": [
    {
      "children": [
        1
      ],
      "name": "RootNode (gltf orientation matrix)",
      "rotation": [
        -0.70710678118654746,
        -0,
        -0,
        0.70710678118654757
      ]
    },
    {
      "children": [
        2
      ],
      "name": "RootNode (model correction matrix)"
    },
    {
      "children": [
        3
      ],
      "matrix": [
        1,
        0,
        0,
        0,
        0,
        0,
        1,
        0,
        0,
        -1,
        0,
        0,
        0,
        0,
        0,
        1
      ],
      "name": "mesh.fbx"
    },
    {
      "children": [
        4
      ],
      "name": "RootNode"
    },
    {
      "children": [
        5
      ],
      "name": "geo1"
    },
    {
      "mesh": 0,
      "name": "geo1_MAT_Zombie1_0"
    }
  ],
  "samplers": [
    {
      "magFilter": 9729,
      "minFilter": 9987,
      "wrapS": 10497,
      "wrapT": 10497
    }
  ],
  "scene": 0,
  "scenes": [
    {
      "name": "OSG_Scene",
      "nodes": [
        0
      ]
    }
  ],
  "textures": [
    {
      "sampler": 0,
      "source": 0
    },
    {
      "sampler": 0,
      "source": 1
    }
  ]
}

