{
  "accessors": [
    {
      "bufferView": 2,
      "componentType": 5126,
      "count": 10108,
      "max": [
        0.28936785459518433,
        1.3514786958694458,
        0.25499820709228516
      ],
      "min": [
        -0.2899990975856781,
        0.0058376104570925236,
        -0.24900275468826294
      ],
      "type": "VEC3"
    },
    {
      "bufferView": 2,
      "byteOffset": 121296,
      "componentType": 5126,
      "count": 10108,
      "max": [
        0.99989908933639526,
        0.99717885255813599,
        0.9999353289604187
      ],
      "min": [
        -0.99985450506210327,
        -0.99857068061828613,
        -0.99988692998886108
      ],
      "type": "VEC3"
    },
    {
      "bufferView": 3,
      "componentType": 5126,
      "count": 10108,
      "max": [
        0.99981904029846191,
        0.99993091821670532,
        0.99996107816696167,
        1
      ],
      "min": [
        -0.99986541271209717,
        -0.99994540214538574,
        -0.99951452016830444,
        -1
      ],
      "type": "VEC4"
    },
    {
      "bufferView": 3,
      "byteOffset": 161728,
      "componentType": 5126,
      "count": 10108,
      "max": [
        1,
        1,
        1,
        1
      ],
      "min": [
        1,
        1,
        1,
        1
      ],
      "type": "VEC4"
    },
    {
      "bufferView": 1,
      "componentType": 5126,
      "count": 10108,
      "max": [
        0.9983360767364502,
        0.98489421606063843
      ],
      "min": [
        0.00097465881844982505,
        0.00097465852741152048
      ],
      "type": "VEC2"
    },
    {
      "bufferView": 1,
      "byteOffset": 80864,
      "componentType": 5126,
      "count": 10108,
      "max": [
        0.9983360767364502,
        0.98489421606063843
      ],
      "min": [
        0.00097465881844982505,
        0.00097465852741152048
      ],
      "type": "VEC2"
    },
    {
      "bufferView": 0,
      "componentType": 5125,
      "count": 30102,
      "max": [
        10107
      ],
      "min": [
        0
      ],
      "type": "SCALAR"
    }
  ],
  "asset": {
    "extras": {
      "author": "David Wigforss (https://sketchfab.com/dwigfor)",
      "license": "CC-BY-NC-4.0 (http://creativecommons.org/licenses/by-nc/4.0/)",
      "source": "https://sketchfab.com/3d-models/zombie-old-woman-7ef9813bc95e4687aca87a284e3f3ecf",
      "title": "Zombie Old Woman"
    },
    "generator": "Sketchfab-5.53.1",
    "version": "2.0"
  },
  "bufferViews": [
    {
      "buffer": 0,
      "byteLength": 120408,
      "byteOffset": 0,
      "name": "floatBufferViews",
      "target": 34963
    },
    {
      "buffer": 0,
      "byteLength": 161728,
      "byteOffset": 120408,
      "byteStride": 8,
      "name": "floatBufferViews",
      "target": 34962
    },
    {
      "buffer": 0,
      "byteLength": 242592,
      "byteOffset": 282136,
      "byteStride": 12,
      "name": "floatBufferViews",
      "target": 34962
    },
    {
      "buffer": 0,
      "byteLength": 323456,
      "byteOffset": 524728,
      "byteStride": 16,
      "name": "floatBufferViews",
      "target": 34962
    }
  ],
  "buffers": [
    {
      "byteLength": 848184,
      "uri": "scene.bin"
    }
  ],
  "images": [
    {
      "uri": "textures/MAT_ZombieOldWoman_baseColor.jpeg"
    },
    {
      "uri": "textures/MAT_ZombieOldWoman_normal.png"
    }
  ],
  "materials": [
    {
      "doubleSided": true,
      "emissiveFactor": [
        0,
        0,
        0
      ],
      "name": "MAT_ZombieOldWoman",
      "normalTexture": {
        "index": 1,
        "scale": 1,
        "texCoord": 0
      },
      "pbrMetallicRoughness": {
        "baseColorFactor": [
          1,
          1,
          1,
          1
        ],
        "baseColorTexture": {
          "index": 0,
          "texCoord": 0
        },
        "metallicFactor": 0,
        "roughnessFactor": 0.95770514949999996
      }
    }
  ],
  "meshes": [
    {
      "name": "geo1_MAT_ZombieOldWoman_0",
      "primitives": [
        {
          "attributes": {
            "COLOR_0": 3,
            "NORMAL": 1,
            "POSITION": 0,
            "TANGENT": 2,
            "TEXCOORD_0": 4,
            "TEXCOORD_1": 5
          },
          "indices": 6,
          "material": 0,
          "mode": 4
        }
      ]
    }
  ],
  "nodes": [
    {
      "children": [
        1
      ],
      "name": "RootNode (gltf orientation matrix)",
      "rotation": [
        -0.70710678118654746,
        -0,
        -0,
        0.70710678118654757
      ]
    },
    {
      "children": [
        2
      ],
      "name": "RootNode (model correction matrix)"
    },
    {
      "children": [
        3
      ],
      "matrix": [
        1,
        0,
        0,
        0,
        0,
        0,
        1,
        0,
        0,
        -1,
        0,
        0,
        0,
        0,
        0,
        1
      ],
      "name": "mesh.fbx"
    },
    {
      "children": [
        4
      ],
      "name": "RootNode"
    },
    {
      "children": [
        5
      ],
      "name": "geo1"
    },
    {
      "mesh": 0,
      "name": "geo1_MAT_ZombieOldWoman_0"
    }
  ],
  "samplers": [
    {
      "magFilter": 9729,
      "minFilter": 9987,
      "wrapS": 10497,
      "wrapT": 10497
    }
  ],
  "scene": 0,
  "scenes": [
    {
      "name": "OSG_Scene",
      "nodes": [
        0
      ]
    }
  ],
  "textures": [
    {
      "sampler": 0,
      "source": 0
    },
    {
      "sampler": 0,
      "source": 1
    }
  ]
}

